{"title":"Twilight 2008 DVD9rip English Klam","uid":6710182,"size":1989193204,"categoryP":"video","categoryS":"movies","magnet":"?xt=urn:btih:37e6db3d15b537db297721f18efab95dfea56b81&amp;dn=Twilight+2008+DVD9rip+English+Klam&amp;tr=udp%3A%2F%2Ftracker.openbittorrent.com%3A80&amp;tr=udp%3A%2F%2Fopen.demonii.com%3A1337&amp;tr=udp%3A%2F%2Ftracker.coppersurfer.tk%3A6969&amp;tr=udp%3A%2F%2Fexodus.desync.com%3A6969","seeders":0,"leechers":0,"uploader":"Klambake","files":-1,"time":1317322555,"description":"With: Kristen Stewart, Robert Pattinson en Taylor Lautner\n\nIsabella Swan is een normale Amerikaanse studente, die verliefd wordt op de jongen Edward Cullen. Deze jongen heeft een groot geheim: hij is een vampier. Als Isabella dit ontdekt is ze niet bang, ze houdt van hem. Edward doet dan ook zijn best om de verleiding zijn geliefde leeg te zuigen te weerstaan. Maar hoe sterk is hij? En lukt het hem om de andere vampiers, die niet het doorzettingsvermogen van Edward hebben, bij Isabella weg te houden?\n\nA teenage girl risks everything when she falls in love with a vampire. \n\n------------------ Dutch Friends ------------------\nYou can find my Friends at: http://www.Film-Test.nl \n------ They got my dutch subs ----- and more ------\n\nGeneral:\n\nComplete name                    : Twilight\\Twilight.avi\nFormat                           : AVI\nFormat/Info                      : Audio Video Interleave\nFile size                        : 1.85 GiB\nDuration                         : 1h 56mn\nOverall bit rate                 : 2 270 Kbps\n\nVideo:\n\nFormat                           : MPEG-4 Visual\nFormat profile                   : Simple@L3\nFormat settings, BVOP            : No\nFormat settings, QPel            : No\nFormat settings, GMC             : No warppoints\nFormat settings, Matrix          : Default (H.263)\nCodec ID                         : XVID\nCodec ID/Hint                    : XviD\nDuration                         : 1h 56mn\nBit rate                         : 1 811 Kbps\nWidth                            : 720 pixels\nHeight                           : 304 pixels\nDisplay aspect ratio             : 2.35:1\nFrame rate                       : 25.000 fps\nColor space                      : YUV\nChroma subsampling               : 4:2:0\nBit depth                        : 8 bits\nScan type                        : Progressive\nBits/(Pixel*Frame)               : 0.331\nStream size                      : 1.48 GiB (80%)\nWriting library                  : XviD 1.1.2 (UTC 2006-11-01)\n\nAudio:\n\nFormat                           : AC-3\nFormat/Info                      : Audio Coding 3\nMode extension                   : CM (complete main)\nCodec ID                         : 2000\nDuration                         : 1h 56mn\nBit rate mode                    : Constant\nBit rate                         : 448 Kbps\nChannel(s)                       : 6 channels\nChannel positions                : Front: L C R, Side: L R, LFE\nSampling rate                    : 48.0 KHz\nBit depth                        : 16 bits\nStream size                      : 374 MiB (20%)\nAlignment                        : Aligned on interleaves\nInterleave, duration             : 32 ms (0.80 video frame)\nInterleave, preload duration     : 640 ms\n\n\n","torrent":{"xt":"urn:btih:37e6db3d15b537db297721f18efab95dfea56b81","amp;dn":"Twilight+2008+DVD9rip+English+Klam","amp;tr":["udp%3A%2F%2Ftracker.openbittorrent.com%3A80","udp%3A%2F%2Fopen.demonii.com%3A1337","udp%3A%2F%2Ftracker.coppersurfer.tk%3A6969","udp%3A%2F%2Fexodus.desync.com%3A6969"],"infoHash":"37e6db3d15b537db297721f18efab95dfea56b81","infoHashBuffer":{"type":"Buffer","data":[55,230,219,61,21,181,55,219,41,119,33,241,142,250,185,93,254,165,107,129]},"announce":[],"urlList":[]}}